<?xml version="1.0" encoding="UTF-8"?>
<svg xmlns="http://www.w3.org/2000/svg" viewBox="0 0 64 64">
    <!-- A stylized brain icon in dark violet (#5a189a) -->
    <path fill="#5a189a" d="M32 4c-9.941 0-18 8.059-18 18v4c0 1.104.896 2 2 2h2v6H8v4h6v8H8v4h6v8H8v4h6v2c0 1.104.896 2 2 2h2v-2h24v2h2c1.104 0 2-.896 2-2v-2h6v-4h-6v-8h6v-4h-6v-6h2c1.104 0 2-.896 2-2v-4c0-9.941-8.059-18-18-18zm-14 26h4v4h-4v-4zm0-8h4v4h-4v-4zm0-8h4v4h-4v-4zm16 16h4v4h-4v-4zm0-8h4v4h-4v-4zm0-8h4v4h-4v-4zm10 18h4v4h-4v-4zm0-8h4v4h-4v-4zm0-8h4v4h-4v-4z"/>
</svg>